# Blender v2.74 (sub 0) OBJ File: 'AirConditioner.blend'
# www.blender.org
mtllib AirConditioner.mtl
o internal-unit_Cube.001
v 0.125342 -0.027311 -1.071595
v 0.125342 -0.224677 -1.071595
v -0.014354 -0.224677 -1.036095
v -0.014354 -0.058269 -1.036095
v 0.125342 -0.224677 1.000566
v 0.125342 -0.224677 1.010606
v -0.014354 -0.224677 0.975107
v -0.014354 -0.224677 0.965409
v 0.125342 -0.027311 1.010606
v 0.125342 0.204303 1.010606
v 0.011972 0.097971 0.975107
v -0.014354 -0.058269 0.975107
v 0.125342 0.210579 -1.061554
v 0.125342 0.204303 -1.071595
v 0.011972 0.097971 -1.036095
v 0.011972 0.104247 -1.026397
v -0.014354 -0.056772 0.965409
v 0.656185 -0.011881 -1.061554
v 0.656185 -0.224677 -1.061554
v 0.651978 -0.224677 -1.069365
v 0.651978 -0.013379 -1.069365
v 0.143271 -0.026840 -1.071595
v 0.143271 -0.224677 -1.071595
v 0.143271 -0.224677 1.000566
v 0.143271 -0.224677 1.010606
v 0.143271 -0.026840 1.010606
v 0.143271 0.206566 1.010606
v 0.143271 0.212842 -1.061554
v 0.143271 0.206566 -1.071595
v 0.125342 -0.224677 -1.061555
v -0.014354 -0.224677 -1.026397
v 0.125342 -0.224677 -0.966278
v -0.014354 -0.224677 -0.934369
v 0.125342 -0.224677 0.905290
v -0.014354 -0.224677 0.873381
v 0.125342 0.210579 1.000566
v 0.011972 0.104247 0.965409
v 0.125342 0.210579 0.905290
v 0.011972 0.104247 0.873381
v 0.011972 0.102388 0.849094
v -0.014354 -0.036617 0.849094
v 0.008702 -0.050926 0.849094
v 0.035028 0.088079 0.849094
v 0.125342 0.210579 -0.966278
v 0.011972 0.104247 -0.934369
v -0.014354 -0.056772 -1.026397
v -0.014354 -0.056772 -0.934369
v -0.014354 -0.056772 0.873381
v 0.651978 -0.013379 1.008377
v 0.651978 -0.224676 1.008377
v 0.656185 -0.224676 1.000566
v 0.656185 -0.011881 1.000566
v 0.656185 -0.224676 0.905290
v 0.656185 -0.011881 0.905290
v 0.656185 -0.224677 -0.966278
v 0.656185 -0.011881 -0.966278
v 0.143271 -0.224677 -1.061555
v 0.143271 -0.224677 -0.966278
v 0.143271 -0.224677 0.905290
v 0.143271 0.212842 1.000566
v 0.143271 0.212842 0.905290
v 0.143271 0.212842 -0.966278
v 0.642914 -0.224677 -1.071595
v 0.642914 -0.013727 -1.071595
v 0.642914 -0.224676 1.010606
v 0.642914 -0.224676 1.000566
v 0.651978 0.233792 1.008377
v 0.642914 0.234151 1.010606
v 0.642914 -0.013727 1.010606
v 0.656185 0.236943 -1.061555
v 0.651978 0.233792 -1.069365
v 0.642914 0.234151 -1.071595
v 0.642914 0.240426 -1.061555
v 0.642914 -0.224677 -1.061554
v 0.642914 -0.224677 -0.966278
v 0.642914 -0.224676 0.905290
v 0.656185 0.236943 1.000566
v 0.642914 0.240426 1.000566
v 0.656185 0.236943 0.905290
v 0.642914 0.240426 0.905290
v 0.656185 0.236943 -0.966278
v 0.642914 0.240426 -0.966278
v 0.035028 0.089938 -0.934369
v 0.135822 0.196270 -0.966278
v 0.110130 0.203448 0.880145
v 0.110130 0.203448 -0.941134
v 0.011972 0.102388 -0.910082
v -0.014354 -0.036617 -0.910082
v 0.120610 0.189139 0.880145
v 0.120610 0.189139 -0.941134
v 0.008702 -0.050926 -0.910082
v 0.008702 -0.071081 0.873381
v 0.008702 -0.071081 -0.934369
v 0.035028 0.088079 -0.910082
v 0.035028 0.089938 0.873381
v 0.135822 0.196270 0.905290
vt 0.844817 0.018313
vt 0.904004 0.032864
vt 0.884697 0.061893
vt 0.847446 0.059184
vt 0.907003 0.237295
vt 0.904390 0.239183
vt 0.891654 0.205991
vt 0.893077 0.203868
vt 0.842993 0.239183
vt 0.778409 0.223074
vt 0.815386 0.199728
vt 0.854853 0.200204
vt 0.774571 0.020469
vt 0.777303 0.018576
vt 0.808226 0.050438
vt 0.805825 0.052488
vt 0.854682 0.197783
vt 0.841842 0.120600
vt 0.897954 0.120601
vt 0.897954 0.122940
vt 0.842237 0.122940
vt 0.824665 0.389429
vt 0.772498 0.389411
vt 0.772500 0.384683
vt 0.824542 0.384701
vt 0.155192 0.284438
vt 0.158349 0.284438
vt 0.158349 0.290076
vt 0.155192 0.290076
vt 0.841558 0.252528
vt 0.780012 0.252528
vt 0.780609 0.247800
vt 0.841682 0.247800
vt 0.125386 0.314902
vt 0.121667 0.314749
vt 0.121534 0.309018
vt 0.125286 0.309180
vt 0.906095 0.035233
vt 0.885600 0.064272
vt 0.922515 0.058019
vt 0.891636 0.085931
vt 0.192372 0.023932
vt 0.721040 0.023932
vt 0.712026 0.063392
vt 0.201386 0.063391
vt 0.928922 0.218218
vt 0.903878 0.182464
vt 0.776232 0.220630
vt 0.813560 0.197223
vt 0.961744 0.675341
vt 0.904820 0.675115
vt 0.881452 0.577763
vt 0.940991 0.577726
vt 0.703213 0.193275
vt 0.689940 0.140583
vt 0.695589 0.130099
vt 0.719080 0.191458
vt 0.159943 0.084168
vt 0.130594 0.090193
vt 0.131594 0.040089
vt 0.159943 0.034269
vt 0.846722 0.061524
vt 0.844129 0.085931
vt 0.201386 0.110820
vt 0.712026 0.110821
vt 0.857369 0.173828
vt 0.853868 0.138314
vt 0.909586 0.138314
vt 0.909586 0.140653
vt 0.853473 0.140653
vt 0.909586 0.165776
vt 0.853474 0.165776
vt 0.878356 0.880694
vt 0.878357 0.976857
vt 0.032593 0.976856
vt 0.032593 0.880694
vt 0.841842 0.095478
vt 0.897954 0.095478
vt 0.072317 0.355476
vt 0.075474 0.355476
vt 0.075474 0.361114
vt 0.072317 0.361114
vt 0.105435 0.355476
vt 0.105435 0.361114
vt 0.165267 0.508437
vt 0.735767 0.508437
vt 0.735828 0.518394
vt 0.165327 0.518394
vt 0.125231 0.284438
vt 0.125231 0.290076
vt 0.108646 0.017231
vt 0.104937 0.017380
vt 0.105044 0.011710
vt 0.108768 0.011542
vt 0.075013 0.017089
vt 0.075071 0.011404
vt 0.744917 0.295809
vt 0.174075 0.295809
vt 0.174015 0.285846
vt 0.744857 0.285846
vt 0.155793 0.314739
vt 0.155749 0.308934
vt 0.897954 0.125401
vt 0.842329 0.125401
vt 0.155192 0.123139
vt 0.157648 0.124462
vt 0.158349 0.127312
vt 0.155192 0.127312
vt 0.788695 0.138314
vt 0.788600 0.135853
vt 0.853960 0.135853
vt 0.124908 0.475287
vt 0.122157 0.473980
vt 0.121534 0.471028
vt 0.125245 0.470994
vt 0.073016 0.195500
vt 0.075473 0.194177
vt 0.075473 0.198351
vt 0.072315 0.198351
vt 0.105435 0.194177
vt 0.105435 0.198351
vt 0.165194 0.346177
vt 0.735694 0.346177
vt 0.735767 0.356133
vt 0.165267 0.356133
vt 0.125230 0.123139
vt 0.125230 0.127313
vt 0.108142 0.176849
vt 0.105376 0.178163
vt 0.105042 0.173846
vt 0.108768 0.173883
vt 0.075121 0.179357
vt 0.074955 0.174900
vt 0.737148 0.314329
vt 0.166306 0.314329
vt 0.166234 0.304366
vt 0.737077 0.304366
vt 0.154797 0.476552
vt 0.154979 0.472248
vt 0.776232 0.120600
vt 0.777063 0.122939
vt 0.886211 0.389450
vt 0.885615 0.384722
vt 0.893724 0.252528
vt 0.893724 0.247800
vt 0.800396 0.077116
vt 0.190219 0.263245
vt 0.170051 0.184473
vt 0.183660 0.184422
vt 0.196947 0.252130
vt 0.814122 0.172830
vt 0.787864 0.140654
vt 0.787864 0.165776
vt 0.878356 0.768250
vt 0.032593 0.768251
vt 0.776232 0.095477
vt 0.776968 0.125401
vt 0.909586 0.135852
vt 0.697125 0.250221
vt 0.210986 0.235099
vt 0.208065 0.186251
vt 0.221861 0.138007
vt 0.238866 0.323277
vt 0.666687 0.323277
vt 0.666732 0.330744
vt 0.238911 0.330744
vt 0.217407 0.129989
vt 0.702008 0.122559
vt 0.209949 0.119210
vt 0.703280 0.256593
vt 0.194026 0.183699
vt 0.204599 0.245317
vt 0.730340 0.192564
vt 0.712888 0.267281
vt 0.745192 0.193027
vt 0.719322 0.276442
vt 0.828077 0.521178
vt 0.772453 0.521159
vt 0.838100 0.384276
vt 0.772739 0.384276
vt 0.839247 0.752741
vt 0.041964 0.752741
vt 0.041964 0.539570
vt 0.839247 0.539570
vt 0.893438 0.521201
vt 0.893724 0.384276
vn -0.246300 -0.000000 -0.969200
vn 0.000000 -1.000000 -0.000000
vn -0.279600 0.019000 0.959900
vn -0.692000 0.609100 -0.387400
vn -1.000000 -0.000000 -0.000000
vn 0.880400 0.000000 -0.474200
vn -0.000000 0.000000 -1.000000
vn 0.000000 0.000000 1.000000
vn -0.106400 0.843200 -0.527000
vn -0.692000 0.609100 0.387400
vn -0.684100 0.729400 0.000000
vn 0.880400 0.000000 0.474200
vn 1.000000 0.000000 0.000000
vn -0.106400 0.843200 0.527000
vn -0.125200 0.992100 0.000000
vn 0.238800 0.000000 -0.971100
vn 0.238800 0.000000 0.971100
vn 0.195100 0.847600 -0.493500
vn 0.195000 0.847600 0.493500
vn 0.253900 0.967200 0.000000
vn -0.279600 0.019000 -0.959900
vn -0.246300 -0.000000 0.969200
vn -0.984400 0.163400 0.065500
vn -0.984400 0.163400 -0.065500
vn -0.986900 0.161400 -0.000000
vn 0.134700 0.157900 0.978200
vn -0.717300 0.696700 -0.000000
vn -0.982500 0.186100 -0.000000
vn 0.806800 0.590900 0.000000
vn -0.527300 -0.849700 0.000000
vn 0.527300 0.849700 -0.000000
vn -0.144000 -0.168700 0.975100
vn -0.756000 0.644300 -0.115400
vn -0.982900 0.172500 0.065000
vn -0.756000 0.644300 0.115400
vn -0.982900 0.172500 -0.065000
vn -0.424500 0.905400 -0.000000
vn 0.134700 0.157900 -0.978200
vn -0.144000 -0.168700 -0.975100
vn -0.806800 -0.590900 -0.000000
vn -0.046800 0.847000 -0.529500
vn -0.046800 0.847100 0.529500
vn -0.055100 0.998500 0.000000
usemtl beige-baked
s 1
f 1/1/1 2/2/1 3/3/1 4/4/1
f 5/5/2 6/6/2 7/7/2 8/8/2
f 9/9/3 10/10/3 11/11/3 12/12/3
f 13/13/4 14/14/4 15/15/4 16/16/4
f 17/17/5 8/8/5 7/7/5 12/12/5
f 18/18/6 19/19/6 20/20/6 21/21/6
f 22/22/7 23/23/7 2/24/7 1/25/7
f 24/26/2 25/27/2 6/28/2 5/29/2
f 26/30/8 27/31/8 10/32/8 9/33/8
f 28/34/9 29/35/9 14/36/9 13/37/9
f 2/2/2 30/38/2 31/39/2 3/3/2
f 30/38/2 32/40/2 33/41/2 31/39/2
f 32/42/2 34/43/2 35/44/2 33/45/2
f 34/46/2 5/5/2 8/8/2 35/47/2
f 10/10/10 36/48/10 37/49/10 11/11/10
f 36/50/11 38/51/11 39/52/11 37/53/11
f 40/54/8 41/55/8 42/56/8 43/57/8
f 44/58/11 13/59/11 16/60/11 45/61/11
f 4/4/5 3/3/5 31/39/5 46/62/5
f 46/62/5 31/39/5 33/41/5 47/63/5
f 47/64/5 33/45/5 35/44/5 48/65/5
f 48/66/5 35/47/5 8/8/5 17/17/5
f 49/67/12 50/68/12 51/69/12 52/70/12
f 52/70/13 51/69/13 53/71/13 54/72/13
f 54/73/13 53/74/13 55/75/13 56/76/13
f 56/77/13 55/78/13 19/19/13 18/18/13
f 23/79/2 57/80/2 30/81/2 2/82/2
f 57/80/2 58/83/2 32/84/2 30/81/2
f 58/85/2 59/86/2 34/87/2 32/88/2
f 59/89/2 24/26/2 5/29/2 34/90/2
f 27/91/14 60/92/14 36/93/14 10/94/14
f 60/92/15 61/95/15 38/96/15 36/93/15
f 61/97/15 62/98/15 44/99/15 38/100/15
f 62/101/15 28/34/15 13/37/15 44/102/15
f 21/21/16 20/20/16 63/103/16 64/104/16
f 51/105/2 50/106/2 65/107/2 66/108/2
f 49/67/17 67/109/17 68/110/17 69/111/17
f 70/112/18 71/113/18 72/114/18 73/115/18
f 20/116/2 19/117/2 74/118/2 63/119/2
f 19/117/2 55/120/2 75/121/2 74/118/2
f 55/122/2 53/123/2 76/124/2 75/125/2
f 53/126/2 51/105/2 66/108/2 76/127/2
f 67/128/19 77/129/19 78/130/19 68/131/19
f 77/129/20 79/132/20 80/133/20 78/130/20
f 79/134/20 81/135/20 82/136/20 80/137/20
f 81/138/20 70/112/20 73/115/20 82/139/20
f 14/14/21 1/1/21 4/4/21 15/15/21
f 6/6/22 9/9/22 12/12/22 7/7/22
f 37/49/23 17/17/23 12/12/23 11/11/23
f 70/140/6 18/18/6 21/21/6 71/141/6
f 29/142/7 22/22/7 1/25/7 14/143/7
f 25/144/8 26/30/8 9/33/8 6/145/8
f 15/15/24 4/4/24 46/62/24 16/16/24
f 16/16/25 46/62/25 47/63/25 45/146/25
f 44/147/26 45/148/26 83/149/26 84/150/26
f 39/151/25 48/66/25 17/17/25 37/49/25
f 67/109/12 49/67/12 52/70/12 77/152/12
f 77/152/13 52/70/13 54/72/13 79/153/13
f 79/154/13 54/73/13 56/76/13 81/155/13
f 81/156/13 56/77/13 18/18/13 70/140/13
f 71/141/16 21/21/16 64/104/16 72/157/16
f 50/68/17 49/67/17 69/111/17 65/158/17
f 85/159/27 86/160/27 87/161/27 40/54/27
f 87/161/28 88/162/28 41/55/28 40/54/28
f 86/163/29 85/164/29 89/165/29 90/166/29
f 41/55/30 88/162/30 91/167/30 42/56/30
f 47/64/31 48/65/31 92/168/31 93/169/31
f 85/159/32 40/54/32 43/57/32 89/170/32
f 84/150/33 83/149/33 94/171/33 90/172/33
f 93/169/5 92/168/5 42/56/5 91/167/5
f 92/168/34 95/173/34 43/57/34 42/56/34
f 95/173/35 96/174/35 89/170/35 43/57/35
f 83/149/36 93/169/36 91/167/36 94/171/36
f 96/174/37 84/150/37 90/172/37 89/170/37
f 48/65/7 39/175/7 95/173/7 92/168/7
f 39/175/38 38/176/38 96/174/38 95/173/38
f 88/162/7 87/161/7 94/171/7 91/167/7
f 45/148/8 47/64/8 93/169/8 83/149/8
f 87/161/39 86/160/39 90/172/39 94/171/39
f 38/176/40 44/147/40 84/150/40 96/174/40
f 64/177/7 63/178/7 23/23/7 22/22/7
f 66/108/2 65/107/2 25/27/2 24/26/2
f 69/179/8 68/180/8 27/31/8 26/30/8
f 73/115/41 72/114/41 29/35/41 28/34/41
f 63/119/2 74/118/2 57/80/2 23/79/2
f 74/118/2 75/121/2 58/83/2 57/80/2
f 75/125/2 76/124/2 59/86/2 58/85/2
f 76/127/2 66/108/2 24/26/2 59/89/2
f 68/131/42 78/130/42 60/92/42 27/91/42
f 78/130/43 80/133/43 61/95/43 60/92/43
f 80/181/43 82/182/43 62/183/43 61/184/43
f 82/139/43 73/115/43 28/34/43 62/101/43
f 72/185/7 64/177/7 22/22/7 29/142/7
f 65/186/8 69/179/8 26/30/8 25/144/8
